<svg xmlns="http://www.w3.org/2000/svg" width="1200" height="900" viewBox="0 0 1200 900"><rect width="1200" height="900" rx="16" fill="#05080d"/><rect x="20" y="20" width="1160" height="860" rx="12" fill="#0a1018" stroke="#263445"/><circle cx="48" cy="47" r="6" fill="#f85149"/><circle cx="68" cy="47" r="6" fill="#d29922"/><circle cx="88" cy="47" r="6" fill="#39d353"/><style>text{font-family:ui-monospace,SFMono-Regular,Consolas,Liberation Mono,monospace;font-size:15px}.head{font-size:18px;font-weight:700}.dim{fill:#718096}.small{font-size:13px}</style><text x="112" y="53" class="small" fill="#718096">profile-readme-redesign : bash</text><line x1="20" y1="72" x2="1180" y2="72" stroke="#263445"/><text x="48" y="106" fill="#39d353">shahm@github</text><text x="166" y="106" fill="#d7e0ea">:</text><text x="178" y="106" fill="#2f81f7">~</text><text x="192" y="106" fill="#d7e0ea">$ ./profile --live --ascii</text><text x="48" y="137" fill="#718096">[ok] loading public GitHub activity...</text><text x="48" y="180" fill="#39d353">+---------------------------------------------+</text><text x="48" y="204" fill="#2f81f7">| SHAHM NAJEEB                                |</text><text x="48" y="228" fill="#2f81f7">| @DefinetlyNotAI                             |</text><text x="48" y="252" fill="#39d353">+----------------------+----------------------+</text><text x="48" y="276" fill="#d7e0ea">| SOFTWARE             | HARDWARE             |</text><text x="48" y="300" fill="#d7e0ea">| AI + GAME EXPERIMENTS| ROBOTICS + EMBEDDED  |</text><text x="48" y="324" fill="#d7e0ea">| SECURITY TOOLING     | BUILDING SYSTEMS     |</text><text x="48" y="348" fill="#39d353">+----------------------+----------------------+</text><text x="48" y="372" fill="#d7e0ea">| INPUT  -&gt;  DESIGN  -&gt;  BUILD  -&gt;  SHIP      |</text><text x="48" y="396" fill="#39d353">+---------------------------------------------+</text><text x="650" y="180" class="head" fill="#a371f7">profile.info</text><text x="650" y="216" fill="#718096">joined ................</text><text x="872" y="216" fill="#d29922">12 Nov 2023</text><text x="650" y="247" fill="#718096">uptime ................</text><text x="872" y="247" fill="#39d353">2 years, 8 months, 6 days</text><text x="650" y="278" fill="#718096">ides ..................</text><text x="872" y="278" fill="#2f81f7">WebStorm, CLion, PyCharm</text><text x="650" y="309" fill="#718096">languages.real ........</text><text x="872" y="309" fill="#a371f7">English, Arabic</text><text x="650" y="340" fill="#718096">focus.software ........</text><text x="872" y="340" fill="#2bbac5">AI, games, security tools</text><text x="650" y="371" fill="#718096">focus.hardware ........</text><text x="872" y="371" fill="#d29922">Robotics, embedded systems</text><text x="650" y="402" fill="#718096">scope .................</text><text x="872" y="402" fill="#718096">public GitHub repositories</text><text x="650" y="433" fill="#718096">refresh ...............</text><text x="872" y="433" fill="#718096">weekly</text><text x="48" y="444" fill="#39d353">shahm@github</text><text x="166" y="444" fill="#d7e0ea">:</text><text x="178" y="444" fill="#2f81f7">~</text><text x="192" y="444" fill="#d7e0ea">$ languages --all --by-bytes</text><text x="48" y="474" fill="#2f81f7">|-- </text><text x="88" y="474" fill="#d7e0ea">Python 71%, C++ 11%, HTML 5%, Jupyter Notebook 5%, C 3%</text><text x="48" y="529" fill="#39d353">shahm@github</text><text x="166" y="529" fill="#d7e0ea">:</text><text x="178" y="529" fill="#2f81f7">~</text><text x="192" y="529" fill="#d7e0ea">$ github-stats --verbose</text><text x="48" y="563" fill="#718096">|-- repositories ............</text><text x="348" y="563" fill="#2f81f7">43</text><text x="48" y="591" fill="#718096">|-- commits .................</text><text x="348" y="591" fill="#a371f7">6,397</text><text x="48" y="619" fill="#718096">|-- total_stars .............</text><text x="348" y="619" fill="#d29922">474</text><text x="48" y="647" fill="#718096">|-- followers ...............</text><text x="348" y="647" fill="#2bbac5">66</text><text x="48" y="675" fill="#718096">|-- active_commit_days ......</text><text x="348" y="675" fill="#39d353">653</text><text x="624" y="563" fill="#718096">|-- net_lines ...............</text><text x="924" y="563" fill="#d7e0ea">8,073,883</text><text x="624" y="591" fill="#718096">|-- additions ...............</text><text x="924" y="591" fill="#39d353">+10,404,214</text><text x="624" y="619" fill="#718096">|-- deletions ...............</text><text x="924" y="619" fill="#f85149">-2,330,331</text><text x="624" y="647" fill="#718096">|-- code_churn ..............</text><text x="924" y="647" fill="#2f81f7">12,734,545</text><text x="624" y="675" fill="#718096">|-- jordan_rank .............</text><text x="924" y="675" fill="#a7b0b8">#2</text><text x="48" y="721" fill="#718096">|-- longest_commit_streak ........</text><text x="348" y="721" fill="#39d353">172 days</text><text x="468" y="721" fill="#718096">[07 May 2024 - 25 Oct 2024]</text><text x="48" y="763" fill="#39d353">shahm@github</text><text x="166" y="763" fill="#d7e0ea">:</text><text x="178" y="763" fill="#2f81f7">~</text><text x="192" y="763" fill="#d7e0ea">$ </text><rect x="211" y="750" width="9" height="17" fill="#d7e0ea"/></svg>