<svg xmlns="http://www.w3.org/2000/svg" width="1200" height="1789" viewBox="0 0 1200 1789"><rect width="1200" height="1789" rx="16" fill="#EDF2F7"/><rect x="20" y="20" width="1160" height="1749" rx="12" fill="#FFFFFF" stroke="#BCC8D4"/><circle cx="48" cy="47" r="6" fill="#CF222E"/><circle cx="68" cy="47" r="6" fill="#9A6700"/><circle cx="88" cy="47" r="6" fill="#1A7F37"/><style>text{font-family:ui-monospace,SFMono-Regular,Consolas,Liberation Mono,monospace;font-size:15px;white-space:pre}.small{font-size:13px}.head{font-size:19px;font-weight:700}.avatar{font-size:14px}.lang-label{font-size:12px}.lang-bar{font-size:22px;font-weight:700}</style><text x="112" y="53" fill="#66717E" class="small">profile-readme : bash</text><line x1="20" y1="72" x2="1180" y2="72" stroke="#BCC8D4"/><text x="48" y="106" fill="#1A7F37">shahm@github</text><text x="166" y="106" fill="#17212B">:</text><text x="178" y="106" fill="#0969DA">~</text><text x="192" y="106" fill="#17212B">$ ./profile --live --ascii</text><text x="48" y="137" fill="#66717E">[ok] loading public GitHub activity...</text><text x="48" y="175" fill="#17212B" class="head">Shahm Najeeb</text><text x="255" y="175" fill="#0969DA" class="head">@DefinetlyNotAI</text><text x="48" y="205" fill="#17212B" class="avatar">%%%%%%############*###***************#########</text><text x="48" y="222" fill="#17212B" class="avatar">%%%%######*#*********##*++++++*++++*****#**###</text><text x="48" y="239" fill="#17212B" class="avatar">%%%####*****##*++++*+++*+==+=++=++=++++*******</text><text x="48" y="256" fill="#17212B" class="avatar">%%%###***+++#*++==+*+===--=--::--:-====++++***</text><text x="48" y="273" fill="#17212B" class="avatar">####***+**++====*+=-==-==::::..::..::--==++++*</text><text x="48" y="290" fill="#17212B" class="avatar">*#****++##===++====---+-=:.........::::=====++</text><text x="48" y="307" fill="#17212B" class="avatar">****+++++=--=++-==+::--:...-:..:-:.:.::==-===+</text><text x="48" y="324" fill="#17212B" class="avatar">*****#*=+*=:-::-+--+%@%#=..--.......-::--=-===</text><text x="48" y="341" fill="#17212B" class="avatar">******+==+-:++:-::@%**+#@: -....  ..-::--=====</text><text x="48" y="358" fill="#17212B" class="avatar">#*****+==--==--+-:#+:.:+#=.:.:-:  ...::--=--==</text><text x="48" y="375" fill="#17212B" class="avatar">****++++*-++==-=--=#*:=+=::-:-:.  --..:--+=-==</text><text x="48" y="392" fill="#17212B" class="avatar">#***+++==*=-==--=-=-.-..-=:.::-. .-.:--:-----=</text><text x="48" y="409" fill="#17212B" class="avatar">#******+*+=+=+==-::=-:.:.=-:+:.:..:::--------=</text><text x="48" y="426" fill="#17212B" class="avatar">##*****=+++=+=+--=+##.= :@@#*++-.:=-::--+=---=</text><text x="48" y="443" fill="#17212B" class="avatar">#****+++++-=++-#%@@@%-#:%@@@@@@*:..::--=+=--==</text><text x="48" y="460" fill="#17212B" class="avatar">##****+++=++*=+@@@@@@+*%@@%@@@@%:::::--===--==</text><text x="48" y="477" fill="#17212B" class="avatar">##****++++==+-#@@@@@@%#@@@@@@@@@-------===-===</text><text x="48" y="494" fill="#17212B" class="avatar">##*****++++++=*@@@@@@@@@@@@@@@@@=:===-====-===</text><text x="48" y="511" fill="#17212B" class="avatar">###****+++==+=+@@@@@@@@@@@@@@@@@=:---=========</text><text x="48" y="528" fill="#17212B" class="avatar">###******++===+@@@@@@@@@@@@@@@@@=----=========</text><text x="48" y="545" fill="#17212B" class="avatar">######****+++=+@@@@@@@@@@@@@@@@#---=====+====+</text><text x="48" y="562" fill="#17212B" class="avatar">%######****+++=*@@@@@@@@@@@@@@#===============</text><text x="48" y="633" fill="#1A7F37">shahm@github</text><text x="166" y="633" fill="#17212B">:</text><text x="178" y="633" fill="#0969DA">~</text><text x="192" y="633" fill="#17212B">$ github-languages --aggregate --by-bytes</text><text x="48" y="667" fill="#66717E" class="lang-label">|</text><text x="318.0" y="667" fill="#17212B" class="lang-label" text-anchor="middle">Python 74.63%</text><text x="588" y="667" fill="#66717E" class="lang-label">|</text><text x="628.0" y="667" fill="#17212B" class="lang-label" text-anchor="middle">11.36%</text><text x="668" y="667" fill="#66717E" class="lang-label">|</text><text x="688.0" y="667" fill="#17212B" class="lang-label" text-anchor="middle">5.10%</text><text x="708" y="667" fill="#66717E" class="lang-label">|</text><text x="718.0" y="667" fill="#17212B" class="lang-label" text-anchor="middle">3.45%</text><text x="728" y="667" fill="#66717E" class="lang-label">|</text><text x="738.0" y="667" fill="#17212B" class="lang-label" text-anchor="middle">3.12%</text><text x="748" y="667" fill="#66717E" class="lang-label">|</text><text x="758.0" y="667" fill="#17212B" class="lang-label" text-anchor="middle">2.34%</text><text x="768" y="667" fill="#66717E" class="lang-label">|</text><text x="48" y="701" fill="#3572A5" class="lang-bar">#</text><text x="58" y="701" fill="#3572A5" class="lang-bar">#</text><text x="68" y="701" fill="#3572A5" class="lang-bar">#</text><text x="78" y="701" fill="#3572A5" class="lang-bar">#</text><text x="88" y="701" fill="#3572A5" class="lang-bar">#</text><text x="98" y="701" fill="#3572A5" class="lang-bar">#</text><text x="108" y="701" fill="#3572A5" class="lang-bar">#</text><text x="118" y="701" fill="#3572A5" class="lang-bar">#</text><text x="128" y="701" fill="#3572A5" class="lang-bar">#</text><text x="138" y="701" fill="#3572A5" class="lang-bar">#</text><text x="148" y="701" fill="#3572A5" class="lang-bar">#</text><text x="158" y="701" fill="#3572A5" class="lang-bar">#</text><text x="168" y="701" fill="#3572A5" class="lang-bar">#</text><text x="178" y="701" fill="#3572A5" class="lang-bar">#</text><text x="188" y="701" fill="#3572A5" class="lang-bar">#</text><text x="198" y="701" fill="#3572A5" class="lang-bar">#</text><text x="208" y="701" fill="#3572A5" class="lang-bar">#</text><text x="218" y="701" fill="#3572A5" class="lang-bar">#</text><text x="228" y="701" fill="#3572A5" class="lang-bar">#</text><text x="238" y="701" fill="#3572A5" class="lang-bar">#</text><text x="248" y="701" fill="#3572A5" class="lang-bar">#</text><text x="258" y="701" fill="#3572A5" class="lang-bar">#</text><text x="268" y="701" fill="#3572A5" class="lang-bar">#</text><text x="278" y="701" fill="#3572A5" class="lang-bar">#</text><text x="288" y="701" fill="#3572A5" class="lang-bar">#</text><text x="298" y="701" fill="#3572A5" class="lang-bar">#</text><text x="308" y="701" fill="#3572A5" class="lang-bar">#</text><text x="318" y="701" fill="#3572A5" class="lang-bar">#</text><text x="328" y="701" fill="#3572A5" class="lang-bar">#</text><text x="338" y="701" fill="#3572A5" class="lang-bar">#</text><text x="348" y="701" fill="#3572A5" class="lang-bar">#</text><text x="358" y="701" fill="#3572A5" class="lang-bar">#</text><text x="368" y="701" fill="#3572A5" class="lang-bar">#</text><text x="378" y="701" fill="#3572A5" class="lang-bar">#</text><text x="388" y="701" fill="#3572A5" class="lang-bar">#</text><text x="398" y="701" fill="#3572A5" class="lang-bar">#</text><text x="408" y="701" fill="#3572A5" class="lang-bar">#</text><text x="418" y="701" fill="#3572A5" class="lang-bar">#</text><text x="428" y="701" fill="#3572A5" class="lang-bar">#</text><text x="438" y="701" fill="#3572A5" class="lang-bar">#</text><text x="448" y="701" fill="#3572A5" class="lang-bar">#</text><text x="458" y="701" fill="#3572A5" class="lang-bar">#</text><text x="468" y="701" fill="#3572A5" class="lang-bar">#</text><text x="478" y="701" fill="#3572A5" class="lang-bar">#</text><text x="488" y="701" fill="#3572A5" class="lang-bar">#</text><text x="498" y="701" fill="#3572A5" class="lang-bar">#</text><text x="508" y="701" fill="#3572A5" class="lang-bar">#</text><text x="518" y="701" fill="#3572A5" class="lang-bar">#</text><text x="528" y="701" fill="#3572A5" class="lang-bar">#</text><text x="538" y="701" fill="#3572A5" class="lang-bar">#</text><text x="548" y="701" fill="#3572A5" class="lang-bar">#</text><text x="558" y="701" fill="#3572A5" class="lang-bar">#</text><text x="568" y="701" fill="#3572A5" class="lang-bar">#</text><text x="578" y="701" fill="#3572A5" class="lang-bar">#</text><text x="588" y="701" fill="#F34B7D" class="lang-bar">#</text><text x="598" y="701" fill="#F34B7D" class="lang-bar">#</text><text x="608" y="701" fill="#F34B7D" class="lang-bar">#</text><text x="618" y="701" fill="#F34B7D" class="lang-bar">#</text><text x="628" y="701" fill="#F34B7D" class="lang-bar">#</text><text x="638" y="701" fill="#F34B7D" class="lang-bar">#</text><text x="648" y="701" fill="#F34B7D" class="lang-bar">#</text><text x="658" y="701" fill="#F34B7D" class="lang-bar">#</text><text x="668" y="701" fill="#E34C26" class="lang-bar">#</text><text x="678" y="701" fill="#E34C26" class="lang-bar">#</text><text x="688" y="701" fill="#E34C26" class="lang-bar">#</text><text x="698" y="701" fill="#E34C26" class="lang-bar">#</text><text x="708" y="701" fill="#555555" class="lang-bar">#</text><text x="718" y="701" fill="#555555" class="lang-bar">#</text><text x="728" y="701" fill="#3178C6" class="lang-bar">#</text><text x="738" y="701" fill="#3178C6" class="lang-bar">#</text><text x="748" y="701" fill="#8B949E" class="lang-bar">#</text><text x="758" y="701" fill="#8B949E" class="lang-bar">#</text><text x="48" y="738" fill="#66717E" class="small">Others: Cython, JavaScript, Cuda, C#, PowerShell, CMake, Shell, Pascal, Smarty, Fortran, Ren&#x27;Py, XSLT,</text><text x="48" y="759" fill="#66717E" class="small">PLpgSQL, Objective-C, Batchfile, Kotlin, Java, Assembly, NASL, Makefile, BitBake, Meson, Rust, Mako, Swift,</text><text x="48" y="780" fill="#66717E" class="small">Vim Script, Scala, Jinja</text><text x="48" y="840" fill="#1A7F37">shahm@github</text><text x="166" y="840" fill="#17212B">:</text><text x="178" y="840" fill="#0969DA">~</text><text x="192" y="840" fill="#17212B">$ github-stats --verbose</text><text x="48" y="875" fill="#66717E">|-- repositories</text><text x="366" y="875" fill="#17212B">43</text><text x="48" y="904" fill="#66717E">|-- commits</text><text x="366" y="904" fill="#0969DA">6401</text><text x="48" y="933" fill="#66717E">|-- total_stars</text><text x="366" y="933" fill="#9A6700">474</text><text x="48" y="962" fill="#66717E">|-- followers</text><text x="366" y="962" fill="#0969DA">66</text><text x="48" y="991" fill="#66717E">|-- active_commit_days</text><text x="366" y="991" fill="#1A7F37">653</text><text x="624" y="875" fill="#66717E">|-- net_lines</text><text x="942" y="875" fill="#1A7F37">8074944</text><text x="624" y="904" fill="#66717E">|-- additions</text><text x="942" y="904" fill="#1A7F37">+10,405,689</text><text x="624" y="933" fill="#66717E">|-- deletions</text><text x="942" y="933" fill="#CF222E">-2,330,745</text><text x="624" y="962" fill="#66717E">|-- code_churn</text><text x="942" y="962" fill="#9A6700">12736434</text><text x="624" y="991" fill="#66717E">|-- jordan_rank</text><text x="942" y="991" fill="#0969DA">#2</text><text x="48" y="1035" fill="#66717E">|-- longest_commit_streak</text><text x="366" y="1035" fill="#1A7F37">172 days</text><text x="500" y="1035" fill="#66717E">[07 May 2024 - 25 Oct 2024]</text><text x="48" y="1087" fill="#1A7F37">shahm@github</text><text x="166" y="1087" fill="#17212B">:</text><text x="178" y="1087" fill="#0969DA">~</text><text x="192" y="1087" fill="#17212B">$ about</text><text x="48" y="1121" fill="#17212B">I’m Shahm Najeeb, a full-stack developer, systems builder, and student</text><text x="48" y="1143" fill="#17212B">technology organizer focused on turning ambitious ideas into working software.</text><text x="48" y="1187" fill="#17212B">My portfolio spans production-ready web platforms, developer tooling,</text><text x="48" y="1209" fill="#17212B">cybersecurity and digital-forensics utilities, NFC infrastructure, embedded</text><text x="48" y="1231" fill="#17212B">systems, machine learning experiments, browser extensions, simulations, and</text><text x="48" y="1253" fill="#17212B">interactive ARG experiences. I work mainly with TypeScript, Python, Next.js,</text><text x="48" y="1275" fill="#17212B">React, PostgreSQL, JavaScript, C, C#, PowerShell, and ESP32 hardware.</text><text x="48" y="1319" fill="#17212B">Some of my larger projects include an NFC-based conference management</text><text x="48" y="1341" fill="#17212B">platform, a self-hosted API and WebSocket sandbox, a TypeScript code-quality</text><text x="48" y="1363" fill="#17212B">analyzer published as a CLI, a Windows forensic data collection system, a</text><text x="48" y="1385" fill="#17212B">digital banking simulation, and Facility, a multi-part psychological-horror</text><text x="48" y="1407" fill="#17212B">ARG with custom websites, terminal games, bots, puzzles, and supporting tools</text><text x="48" y="1429" fill="#17212B">- all of which are open-sourced.</text><text x="48" y="1473" fill="#17212B">Outside development, I founded Hack Street, a non-profit student organization</text><text x="48" y="1495" fill="#17212B">supported through Hack Club’s HCB program for 2.5 years. I have helped</text><text x="48" y="1517" fill="#17212B">organize and lead more than 4 student hackathons while creating the websites,</text><text x="48" y="1539" fill="#17212B">registration systems, schedules, infrastructure, and interactive experiences</text><text x="48" y="1561" fill="#17212B">behind them gathering over 300 students/hackers.</text><text x="48" y="1605" fill="#17212B">I also have over 9 years of structured robotics experience, including</text><text x="48" y="1627" fill="#17212B">embedded systems, competition programming, Arduino based robotics, and</text><text x="48" y="1649" fill="#17212B">regional robotics events. I enjoy projects that combine software, hardware,</text><text x="48" y="1671" fill="#17212B">infrastructure, and creative problem-solving into something people can</text><text x="48" y="1693" fill="#17212B">actually use.</text><text x="48" y="1742" fill="#1A7F37">shahm@github</text><text x="166" y="1742" fill="#17212B">:</text><text x="178" y="1742" fill="#0969DA">~</text><text x="192" y="1742" fill="#17212B">$ </text><rect x="211" y="1728" width="9" height="17" fill="#17212B"/></svg>